<svg width="225" height="72" viewBox="0 0 225 72" fill="none" xmlns="http://www.w3.org/2000/svg">
<path d="M69.5385 36.2906C68.4378 36.9225 67.1026 37.4219 65.533 37.7888C63.9634 38.1558 62.3326 38.3392 60.6407 38.3392C58.3576 38.3392 56.4109 38.064 54.8006 37.5137C53.2106 36.9633 52.0079 36.1989 51.1925 35.2204C50.3975 34.2419 50 33.1106 50 31.8264C50 30.7052 50.3058 29.7166 50.9173 28.8604C51.5288 28.0043 52.3748 27.3418 53.4552 26.8729C52.6194 26.4449 51.9773 25.8537 51.5288 25.0995C51.1008 24.3249 50.8867 23.4789 50.8867 22.5616C50.8867 21.3793 51.2536 20.2989 51.9875 19.3205C52.7417 18.342 53.8832 17.5572 55.4121 16.9661C56.9409 16.3749 58.8265 16.0793 61.0688 16.0793C62.4753 16.0793 63.8615 16.2118 65.2272 16.4768C66.593 16.7418 67.7957 17.0986 68.8353 17.547L67.1841 22.0724C65.2884 21.2366 63.3315 20.8187 61.3134 20.8187C59.8661 20.8187 58.7857 21.0124 58.0723 21.3997C57.3588 21.7666 57.0021 22.2864 57.0021 22.9591C57.0021 24.1822 57.8888 24.7937 59.6623 24.7937H65.7165V29.4108H59.2648C58.2251 29.4108 57.4403 29.5841 56.9103 29.9306C56.3804 30.2568 56.1154 30.746 56.1154 31.3983C56.1154 32.0914 56.5027 32.6316 57.2773 33.0189C58.0519 33.4062 59.2546 33.5998 60.8853 33.5998C62.0472 33.5998 63.2397 33.4469 64.4628 33.1412C65.7063 32.815 66.7866 32.3768 67.7039 31.8264L69.5385 36.2906Z" fill="black"/>
<path d="M85.1224 29.2274C87.0182 29.8593 87.9661 31.1639 87.9661 33.1412C87.9661 34.6292 87.3851 35.8014 86.2232 36.6575C85.0613 37.4933 83.349 37.9112 81.0863 37.9112H71.7604V21.3385H80.6582C82.819 21.3385 84.4905 21.7157 85.6728 22.4699C86.8755 23.2241 87.4768 24.2841 87.4768 25.6499C87.4768 26.4449 87.273 27.1481 86.8653 27.7597C86.4576 28.3712 85.8767 28.8604 85.1224 29.2274ZM76.9584 28.0043H80.1384C81.4838 28.0043 82.1565 27.5049 82.1565 26.506C82.1565 25.5479 81.4838 25.0689 80.1384 25.0689H76.9584V28.0043ZM80.5665 34.1502C81.973 34.1502 82.6763 33.6406 82.6763 32.6214C82.6763 31.6021 81.9934 31.0925 80.6276 31.0925H76.9584V34.1502H80.5665Z" fill="black"/>
<path d="M98.6672 32.0098H96.7103V37.9112H90.9007V21.3385H96.7103V27.4539H98.7895L102.856 21.3385H109.002L103.437 29.2885L109.369 37.9112H102.52L98.6672 32.0098Z" fill="black"/>
<path d="M128.174 21.3385V37.9112H122.364V25.9556H118.175L118.053 28.4935C117.971 30.6543 117.757 32.4379 117.411 33.8444C117.064 35.251 116.493 36.3517 115.698 37.1467C114.903 37.9213 113.813 38.3087 112.427 38.3087C111.713 38.3087 110.775 38.1762 109.613 37.9112L109.858 33.1718C110.225 33.2125 110.47 33.2329 110.592 33.2329C111.224 33.2329 111.703 33.0291 112.029 32.6214C112.355 32.2137 112.579 31.6735 112.702 31.0008C112.824 30.3077 112.906 29.3904 112.946 28.2489L113.191 21.3385H128.174Z" fill="black"/>
<path d="M149.14 21.3385V37.9112H143.605V36.1683C142.994 36.8206 142.26 37.32 141.404 37.6665C140.568 38.0131 139.671 38.1863 138.713 38.1863C136.552 38.1863 134.83 37.5544 133.545 36.2906C132.282 35.0267 131.65 33.131 131.65 30.6033V21.3385H137.459V29.6554C137.459 32.0404 138.387 33.2329 140.242 33.2329C141.159 33.2329 141.903 32.9169 142.474 32.285C143.045 31.6327 143.33 30.6441 143.33 29.3191V21.3385H149.14Z" fill="black"/>
<path d="M170.682 21.3385V34.8841C170.682 37.9621 169.847 40.2656 168.175 41.7944C166.504 43.3436 164.098 44.1182 160.959 44.1182C159.328 44.1182 157.799 43.9348 156.372 43.5679C154.946 43.2009 153.733 42.6607 152.734 41.9473L154.844 37.8806C155.516 38.431 156.362 38.859 157.382 39.1648C158.421 39.491 159.44 39.654 160.439 39.654C161.968 39.654 163.089 39.3177 163.803 38.645C164.516 37.9723 164.873 36.9735 164.873 35.6485V35.0981C163.752 36.4027 162.111 37.055 159.95 37.055C158.482 37.055 157.127 36.7288 155.883 36.0765C154.64 35.4039 153.651 34.4662 152.917 33.2635C152.183 32.0404 151.817 30.6339 151.817 29.0439C151.817 27.4743 152.183 26.0881 152.917 24.8855C153.651 23.6624 154.64 22.7247 155.883 22.0724C157.127 21.3997 158.482 21.0634 159.95 21.0634C162.315 21.0634 164.047 21.8278 165.148 23.3566V21.3385H170.682ZM161.326 32.4379C162.366 32.4379 163.222 32.122 163.894 31.49C164.587 30.8581 164.934 30.0427 164.934 29.0439C164.934 28.0451 164.598 27.2399 163.925 26.6283C163.252 25.9964 162.386 25.6804 161.326 25.6804C160.266 25.6804 159.389 25.9964 158.696 26.6283C158.024 27.2399 157.687 28.0451 157.687 29.0439C157.687 30.0427 158.034 30.8581 158.727 31.49C159.42 32.122 160.286 32.4379 161.326 32.4379Z" fill="black"/>
<path d="M59.4259 46.0099V55.9886H56.6319V48.248H52.8399V55.9886H50.0601V46.0099H59.4259Z" fill="black"/>
<path d="M65.5363 48.1339C66.3822 48.1339 67.1187 48.2955 67.7459 48.6186C68.3732 48.9417 68.8531 49.4074 69.1857 50.0156C69.5278 50.6143 69.6989 51.3176 69.6989 52.1254C69.6989 52.9237 69.5421 53.627 69.2285 54.2352C68.9149 54.8339 68.4729 55.2996 67.9027 55.6322C67.3325 55.9554 66.672 56.1169 65.9212 56.1169C65.0374 56.1169 64.3436 55.8461 63.84 55.3044V58.7542H61.1314V52.1539C61.1314 51.3556 61.312 50.6524 61.6731 50.0441C62.0343 49.4359 62.5475 48.9655 63.2127 48.6329C63.878 48.3002 64.6525 48.1339 65.5363 48.1339ZM65.408 53.9644C65.8927 53.9644 66.2824 53.798 66.577 53.4654C66.8811 53.1233 67.0332 52.6766 67.0332 52.1254C67.0332 51.5742 66.8811 51.1323 66.577 50.7997C66.2824 50.4575 65.8927 50.2865 65.408 50.2865C64.9234 50.2865 64.5337 50.4575 64.2391 50.7997C63.9445 51.1323 63.7972 51.5742 63.7972 52.1254C63.7972 52.6861 63.9397 53.1328 64.2248 53.4654C64.5195 53.798 64.9139 53.9644 65.408 53.9644Z" fill="black"/>
<path d="M74.8141 56.1169C73.9873 56.1169 73.2413 55.9459 72.576 55.6037C71.9108 55.2616 71.3881 54.7864 71.008 54.1782C70.6373 53.57 70.452 52.881 70.452 52.1112C70.452 51.3509 70.6373 50.6666 71.008 50.0584C71.3881 49.4502 71.906 48.9797 72.5618 48.6471C73.227 48.305 73.9778 48.1339 74.8141 48.1339C75.6505 48.1339 76.4012 48.305 77.0665 48.6471C77.7317 48.9797 78.2497 49.4502 78.6203 50.0584C78.991 50.6571 79.1763 51.3414 79.1763 52.1112C79.1763 52.881 78.991 53.57 78.6203 54.1782C78.2497 54.7864 77.7317 55.2616 77.0665 55.6037C76.4012 55.9459 75.6505 56.1169 74.8141 56.1169ZM74.8141 53.9644C75.2893 53.9644 75.679 53.8028 75.9831 53.4797C76.2872 53.1471 76.4393 52.6909 76.4393 52.1112C76.4393 51.5409 76.2872 51.0943 75.9831 50.7712C75.679 50.448 75.2893 50.2865 74.8141 50.2865C74.339 50.2865 73.9493 50.448 73.6452 50.7712C73.3411 51.0943 73.189 51.5409 73.189 52.1112C73.189 52.6909 73.3411 53.1471 73.6452 53.4797C73.9493 53.8028 74.339 53.9644 74.8141 53.9644Z" fill="black"/>
<path d="M84.5379 54.0499C84.9085 54.0499 85.2269 53.9976 85.493 53.8931C85.7686 53.7885 86.0442 53.6175 86.3198 53.3799L87.7311 54.8625C86.9993 55.6988 85.9064 56.1169 84.4523 56.1169C83.5495 56.1169 82.7559 55.9459 82.0717 55.6037C81.3874 55.2616 80.8552 54.7864 80.4751 54.1782C80.1044 53.57 79.9191 52.881 79.9191 52.1112C79.9191 51.3509 80.1044 50.6714 80.4751 50.0726C80.8457 49.4644 81.3542 48.9892 82.0004 48.6471C82.6562 48.305 83.3879 48.1339 84.1957 48.1339C84.9465 48.1339 85.6308 48.2907 86.2485 48.6043C86.8758 48.9085 87.3747 49.3599 87.7453 49.9586C88.116 50.5478 88.3013 51.2511 88.3013 52.0684L82.7845 53.1233C83.0791 53.741 83.6635 54.0499 84.5379 54.0499ZM84.21 50.0584C83.7443 50.0584 83.3642 50.2057 83.0696 50.5003C82.775 50.7854 82.6086 51.1988 82.5706 51.7405L85.7068 51.1275C85.6118 50.8044 85.4312 50.5478 85.1651 50.3577C84.899 50.1582 84.5806 50.0584 84.21 50.0584Z" fill="black"/>
<path d="M93.2137 53.2373H92.3014V55.9886H89.5928V48.2622H92.3014V51.1133H93.2707L95.1667 48.2622H98.032L95.4376 51.9686L98.2031 55.9886H95.0099L93.2137 53.2373Z" fill="black"/>
<path d="M109.165 48.1339C110.116 48.1339 110.871 48.419 111.432 48.9892C112.002 49.5594 112.287 50.4195 112.287 51.5695V55.9886H109.579V52.0114C109.579 51.4697 109.474 51.0705 109.265 50.8139C109.066 50.5573 108.78 50.429 108.41 50.429C108.001 50.429 107.673 50.5716 107.426 50.8567C107.179 51.1418 107.056 51.5742 107.056 52.1539V55.9886H104.347V52.0114C104.347 50.9565 103.957 50.429 103.178 50.429C102.76 50.429 102.427 50.5716 102.18 50.8567C101.933 51.1418 101.81 51.5742 101.81 52.1539V55.9886H99.1011V48.2622H101.681V49.0748C101.966 48.7611 102.304 48.5283 102.693 48.3763C103.093 48.2147 103.525 48.1339 103.991 48.1339C104.532 48.1339 105.017 48.2337 105.445 48.4333C105.872 48.6329 106.219 48.937 106.485 49.3456C106.789 48.956 107.174 48.6566 107.64 48.4475C108.106 48.2384 108.614 48.1339 109.165 48.1339Z" fill="black"/>
<path d="M113.927 48.2622H116.621V51.1275H119.401V48.2622H122.11V55.9886H119.401V53.2801H116.621V55.9886H113.927V48.2622Z" fill="black"/>
<path d="M127.615 56.2167C125.058 56.2167 123.78 55.119 123.78 52.9237V48.2622H126.474V50.7141C126.674 50.5811 126.94 50.4718 127.272 50.3863C127.615 50.3007 128.004 50.258 128.441 50.258C129.392 50.258 130.138 50.5003 130.679 50.985C131.221 51.4602 131.492 52.1682 131.492 53.109C131.492 54.1259 131.14 54.9005 130.437 55.4327C129.743 55.9554 128.802 56.2167 127.615 56.2167ZM132.133 48.2622H134.842V55.9886H132.133V48.2622ZM127.615 54.3635C127.985 54.3635 128.266 54.2542 128.456 54.0356C128.646 53.8171 128.741 53.5272 128.741 53.1661C128.741 52.8144 128.646 52.5388 128.456 52.3392C128.266 52.1397 127.99 52.0399 127.629 52.0399C127.372 52.0399 127.144 52.0874 126.945 52.1824C126.745 52.2775 126.588 52.4058 126.474 52.5673V53.1661C126.474 53.5367 126.569 53.8313 126.759 54.0499C126.949 54.259 127.234 54.3635 127.615 54.3635Z" fill="black"/>
<path d="M140.752 54.0499C141.123 54.0499 141.441 53.9976 141.707 53.8931C141.983 53.7885 142.258 53.6175 142.534 53.3799L143.945 54.8625C143.213 55.6988 142.12 56.1169 140.666 56.1169C139.764 56.1169 138.97 55.9459 138.286 55.6037C137.602 55.2616 137.069 54.7864 136.689 54.1782C136.319 53.57 136.133 52.881 136.133 52.1112C136.133 51.3509 136.319 50.6714 136.689 50.0726C137.06 49.4644 137.568 48.9892 138.215 48.6471C138.87 48.305 139.602 48.1339 140.41 48.1339C141.161 48.1339 141.845 48.2907 142.463 48.6043C143.09 48.9085 143.589 49.3599 143.959 49.9586C144.33 50.5478 144.515 51.2511 144.515 52.0684L138.999 53.1233C139.293 53.741 139.878 54.0499 140.752 54.0499ZM140.424 50.0584C139.958 50.0584 139.578 50.2057 139.284 50.5003C138.989 50.7854 138.823 51.1988 138.785 51.7405L141.921 51.1275C141.826 50.8044 141.645 50.5478 141.379 50.3577C141.113 50.1582 140.795 50.0584 140.424 50.0584Z" fill="black"/>
<path d="M153.833 56.1169C152.978 56.1169 152.213 55.9459 151.538 55.6037C150.863 55.2616 150.336 54.7864 149.955 54.1782C149.585 53.57 149.4 52.881 149.4 52.1112C149.4 51.3414 149.585 50.6571 149.955 50.0584C150.336 49.4502 150.863 48.9797 151.538 48.6471C152.213 48.305 152.978 48.1339 153.833 48.1339C154.707 48.1339 155.463 48.324 156.1 48.7041C156.736 49.0748 157.188 49.5927 157.454 50.258L155.358 51.3271C155.007 50.6334 154.493 50.2865 153.819 50.2865C153.334 50.2865 152.93 50.448 152.607 50.7712C152.293 51.0943 152.137 51.5409 152.137 52.1112C152.137 52.6909 152.293 53.1471 152.607 53.4797C152.93 53.8028 153.334 53.9644 153.819 53.9644C154.493 53.9644 155.007 53.6175 155.358 52.9237L157.454 53.9929C157.188 54.6581 156.736 55.1808 156.1 55.561C155.463 55.9316 154.707 56.1169 153.833 56.1169Z" fill="black"/>
<path d="M166.541 48.2622V55.9886H163.961V55.1761C163.676 55.4802 163.334 55.713 162.935 55.8746C162.545 56.0361 162.127 56.1169 161.68 56.1169C160.673 56.1169 159.87 55.8223 159.271 55.2331C158.682 54.6439 158.387 53.76 158.387 52.5816V48.2622H161.096V52.1397C161.096 53.2516 161.528 53.8076 162.393 53.8076C162.821 53.8076 163.167 53.6603 163.433 53.3656C163.7 53.0615 163.833 52.6006 163.833 51.9829V48.2622H166.541Z" fill="black"/>
<path d="M172.237 56.1169C171.382 56.1169 170.616 55.9459 169.942 55.6037C169.267 55.2616 168.74 54.7864 168.359 54.1782C167.989 53.57 167.803 52.881 167.803 52.1112C167.803 51.3414 167.989 50.6571 168.359 50.0584C168.74 49.4502 169.267 48.9797 169.942 48.6471C170.616 48.305 171.382 48.1339 172.237 48.1339C173.111 48.1339 173.867 48.324 174.503 48.7041C175.14 49.0748 175.592 49.5927 175.858 50.258L173.762 51.3271C173.411 50.6334 172.897 50.2865 172.223 50.2865C171.738 50.2865 171.334 50.448 171.011 50.7712C170.697 51.0943 170.54 51.5409 170.54 52.1112C170.54 52.6909 170.697 53.1471 171.011 53.4797C171.334 53.8028 171.738 53.9644 172.223 53.9644C172.897 53.9644 173.411 53.6175 173.762 52.9237L175.858 53.9929C175.592 54.6581 175.14 55.1808 174.503 55.561C173.867 55.9316 173.111 56.1169 172.237 56.1169Z" fill="black"/>
<path d="M187.055 48.1339C188.005 48.1339 188.761 48.419 189.321 48.9892C189.892 49.5594 190.177 50.4195 190.177 51.5695V55.9886H187.468V52.0114C187.468 51.4697 187.364 51.0705 187.155 50.8139C186.955 50.5573 186.67 50.429 186.299 50.429C185.891 50.429 185.563 50.5716 185.316 50.8567C185.069 51.1418 184.945 51.5742 184.945 52.1539V55.9886H182.237V52.0114C182.237 50.9565 181.847 50.429 181.068 50.429C180.649 50.429 180.317 50.5716 180.07 50.8567C179.823 51.1418 179.699 51.5742 179.699 52.1539V55.9886H176.991V48.2622H179.571V49.0748C179.856 48.7611 180.193 48.5283 180.583 48.3763C180.982 48.2147 181.414 48.1339 181.88 48.1339C182.422 48.1339 182.907 48.2337 183.334 48.4333C183.762 48.6329 184.109 48.937 184.375 49.3456C184.679 48.956 185.064 48.6566 185.53 48.4475C185.995 48.2384 186.504 48.1339 187.055 48.1339Z" fill="black"/>
<path d="M195.908 54.0499C196.279 54.0499 196.597 53.9976 196.863 53.8931C197.139 53.7885 197.414 53.6175 197.69 53.3799L199.101 54.8625C198.369 55.6988 197.277 56.1169 195.822 56.1169C194.92 56.1169 194.126 55.9459 193.442 55.6037C192.758 55.2616 192.225 54.7864 191.845 54.1782C191.475 53.57 191.289 52.881 191.289 52.1112C191.289 51.3509 191.475 50.6714 191.845 50.0726C192.216 49.4644 192.724 48.9892 193.371 48.6471C194.026 48.305 194.758 48.1339 195.566 48.1339C196.317 48.1339 197.001 48.2907 197.619 48.6043C198.246 48.9085 198.745 49.3599 199.115 49.9586C199.486 50.5478 199.671 51.2511 199.671 52.0684L194.155 53.1233C194.449 53.741 195.034 54.0499 195.908 54.0499ZM195.58 50.0584C195.114 50.0584 194.734 50.2057 194.44 50.5003C194.145 50.7854 193.979 51.1988 193.941 51.7405L197.077 51.1275C196.982 50.8044 196.801 50.5478 196.535 50.3577C196.269 50.1582 195.951 50.0584 195.58 50.0584Z" fill="black"/>
<path d="M208.461 55.9886V51.9258L206.48 55.3044H205.325L203.401 51.8688V55.9886H200.963V48.2622H203.814L205.967 52.2965L208.333 48.2622H210.885L210.899 55.9886H208.461Z" fill="black"/>
<path d="M216.404 56.2167C213.848 56.2167 212.57 55.119 212.57 52.9237V48.2622H215.264V50.7141C215.464 50.5811 215.73 50.4718 216.062 50.3863C216.404 50.3007 216.794 50.258 217.231 50.258C218.182 50.258 218.928 50.5003 219.469 50.985C220.011 51.4602 220.282 52.1682 220.282 53.109C220.282 54.1259 219.93 54.9005 219.227 55.4327C218.533 55.9554 217.592 56.2167 216.404 56.2167ZM220.923 48.2622H223.632V55.9886H220.923V48.2622ZM216.404 54.3635C216.775 54.3635 217.055 54.2542 217.245 54.0356C217.436 53.8171 217.531 53.5272 217.531 53.1661C217.531 52.8144 217.436 52.5388 217.245 52.3392C217.055 52.1397 216.78 52.0399 216.419 52.0399C216.162 52.0399 215.934 52.0874 215.734 52.1824C215.535 52.2775 215.378 52.4058 215.264 52.5673V53.1661C215.264 53.5367 215.359 53.8313 215.549 54.0499C215.739 54.259 216.024 54.3635 216.404 54.3635Z" fill="black"/>
<path d="M8.62554 42.7144L16.6313 24.2754H19.3171V29.492L13.6356 42.7144H17.8709V40.3385C17.8709 39.76 18.835 39.7187 19.3171 39.7704V47.053C17.9948 47.053 17.802 46.6054 17.8709 46.3816V44.3156H12.8608L0.464849 71.9999H0L3.15065 62.4447C3.15065 62.4447 0.36155 61.36 1.29125 59.0358C2.22095 56.7115 7.79914 44.3156 7.79914 44.3156H1.29125V42.7144H8.62554Z" fill="#FF9900"/>
<path d="M29.4921 42.7144L21.4864 24.2754H18.8006V29.492L24.4821 42.7144H20.2468V40.3385C20.2468 39.76 19.2826 39.7187 18.8006 39.7704V47.053C20.1228 47.053 20.3156 46.6054 20.2468 46.3816V44.3156H25.2568L37.6528 71.9999H38.1176L34.967 62.4447C34.967 62.4447 37.7561 61.36 36.8264 59.0358C35.8967 56.7115 30.3185 44.3156 30.3185 44.3156H36.8264V42.7144H29.4921Z" fill="#FF9900"/>
<path fill-rule="evenodd" clip-rule="evenodd" d="M19.1107 21.5897C22.1344 21.5897 24.5856 19.1385 24.5856 16.1148C24.5856 13.0911 22.1344 10.6399 19.1107 10.6399C16.087 10.6399 13.6358 13.0911 13.6358 16.1148C13.6358 19.1385 16.087 21.5897 19.1107 21.5897ZM19.1107 24.5854C23.7889 24.5854 27.5813 20.793 27.5813 16.1148C27.5813 11.4366 23.7889 7.64419 19.1107 7.64419C14.4325 7.64419 10.6401 11.4366 10.6401 16.1148C10.6401 20.793 14.4325 24.5854 19.1107 24.5854Z" fill="black"/>
<path d="M17.5612 0H20.6602V8.16069H17.5612V0Z" fill="black"/>
</svg>
