<svg width="162" height="8" viewBox="0 0 162 8" fill="none" xmlns="http://www.w3.org/2000/svg">
<path d="M161.354 4.35355C161.549 4.15829 161.549 3.84171 161.354 3.64645L158.172 0.464466C157.976 0.269204 157.66 0.269204 157.464 0.464466C157.269 0.659728 157.269 0.976311 157.464 1.17157L160.293 4L157.464 6.82843C157.269 7.02369 157.269 7.34027 157.464 7.53553C157.66 7.7308 157.976 7.7308 158.172 7.53553L161.354 4.35355ZM111 4.5H161V3.5H111V4.5Z" fill="#F402A2"/>
<path d="M0.646446 3.64645C0.451183 3.84171 0.451183 4.15829 0.646446 4.35355L3.82843 7.53553C4.02369 7.7308 4.34027 7.7308 4.53553 7.53553C4.7308 7.34027 4.7308 7.02369 4.53553 6.82843L1.70711 4L4.53553 1.17157C4.7308 0.976311 4.7308 0.659728 4.53553 0.464466C4.34027 0.269204 4.02369 0.269204 3.82843 0.464466L0.646446 3.64645ZM51 3.5L1 3.5V4.5L51 4.5V3.5Z" fill="#F402A2"/>
</svg>
